<svg width="108" height="38" viewBox="0 0 108 38" fill="none" xmlns="http://www.w3.org/2000/svg">
<g clip-path="url(#clip0_14_96)">
<path d="M55.7583 12.5865L60.8965 12.2718C61.0138 13.0677 61.2287 13.66 61.5803 14.0857C62.1469 14.7521 62.9284 15.0852 63.9638 15.0852C64.7258 15.0852 65.3314 14.9186 65.7417 14.567C66.1324 14.2893 66.3669 13.8451 66.3669 13.3824C66.3669 12.9381 66.152 12.5124 65.7808 12.2348C65.39 11.9016 64.4718 11.5684 63.0261 11.2723C60.6621 10.7725 58.9624 10.1062 57.966 9.25474C56.9696 8.45883 56.403 7.29273 56.4421 6.0526C56.4421 5.20116 56.7156 4.34972 57.2236 3.64636C57.8097 2.85045 58.6107 2.22113 59.568 1.86945C60.6035 1.44373 62.0492 1.22162 63.8661 1.22162C66.0933 1.22162 67.7931 1.61032 68.9653 2.40623C70.1375 3.18363 70.8408 4.44227 71.0557 6.16365L65.9761 6.4413C65.8394 5.70092 65.5658 5.16414 65.1165 4.81246C64.6672 4.46078 64.081 4.2942 63.3191 4.2942C62.6939 4.2942 62.225 4.42376 61.9124 4.66439C61.6194 4.8865 61.424 5.21967 61.4436 5.58986C61.4436 5.8675 61.5999 6.12664 61.8343 6.29322C62.0883 6.51534 62.6939 6.71894 63.6512 6.90404C66.0152 7.38528 67.6954 7.86653 68.7308 8.36629C69.7663 8.86604 70.5087 9.47686 70.958 10.1987C71.4269 10.9391 71.6614 11.7905 71.6418 12.6605C71.6418 13.697 71.3292 14.7336 70.7041 15.6035C70.0593 16.5105 69.1606 17.2138 68.1057 17.6395C66.9921 18.1023 65.5854 18.3429 63.9052 18.3429C60.9356 18.3429 58.8842 17.8061 57.7316 16.7141C56.5789 15.622 55.8951 14.2523 55.7583 12.5865ZM1.23083 18.0653V1.51777H10.2373C11.898 1.51777 13.1874 1.64734 14.0666 1.92498C14.9262 2.18411 15.6881 2.72089 16.1961 3.44276C16.7627 4.23867 17.0362 5.16414 17.0166 6.12664C17.0753 7.75547 16.1961 9.31027 14.6918 10.1247C14.1056 10.4394 13.4609 10.6615 12.7967 10.7725C13.2851 10.9021 13.7735 11.1242 14.2033 11.3833C14.5355 11.6425 14.809 11.9386 15.063 12.2533C15.356 12.5679 15.61 12.9196 15.8249 13.2898L18.4428 18.0838H12.3083L9.41679 12.9937C9.04559 12.3458 8.733 11.9201 8.43994 11.7165C8.0492 11.4574 7.58032 11.3278 7.11143 11.3278H6.64255V18.0468H1.23083V18.0653ZM6.64255 8.21821H8.92837C9.41679 8.18119 9.88567 8.10715 10.3546 7.9961C10.7062 7.94057 11.0188 7.75547 11.2337 7.47783C11.7612 6.81149 11.6831 5.8675 11.0384 5.29371C10.6867 5.01607 10.0029 4.86799 9.02605 4.86799H6.64255V8.21821ZM0 32.2435L5.13821 31.9289C5.25543 32.7248 5.47033 33.3171 5.822 33.7428C6.36903 34.4092 7.17004 34.7608 8.2055 34.7608C8.96744 34.7608 9.57308 34.5942 9.98336 34.2426C10.3741 33.9464 10.6085 33.5207 10.6085 33.058C10.6085 32.6137 10.3936 32.188 10.0224 31.9104C9.63169 31.5772 8.71346 31.244 7.24819 30.9479C4.88423 30.4481 3.18452 29.7818 2.18813 28.9303C1.19175 28.1344 0.625181 26.9683 0.664255 25.7282C0.664255 24.8768 0.937771 24.0253 1.44573 23.322C2.03184 22.5261 2.83285 21.8967 3.79016 21.545C4.82562 21.1193 6.27135 20.8972 8.08828 20.8972C10.3155 20.8972 12.0152 21.2859 13.1874 22.0818C14.3596 22.8777 15.0434 24.1179 15.2583 25.8393L10.1787 26.1169C10.042 25.3765 9.76845 24.8397 9.3191 24.4881C8.88929 24.1364 8.28365 23.9698 7.52171 23.9883C6.89653 23.9883 6.42764 24.1179 6.11505 24.377C5.80246 24.5991 5.62663 24.9323 5.64617 25.3025C5.64617 25.5801 5.80246 25.8393 6.0369 26.0058C6.29088 26.228 6.89653 26.4316 7.85384 26.6167C10.2178 27.0979 11.898 27.5791 12.9334 28.0789C13.9689 28.5787 14.7113 29.1895 15.1606 29.9113C15.6295 30.6517 15.864 31.5032 15.864 32.3546C15.864 33.3911 15.5318 34.4092 14.9262 35.2791C14.2815 36.1861 13.3828 36.8894 12.3278 37.3151C11.2142 37.7779 9.80753 38.0185 8.12735 38.0185C5.15774 38.0185 3.10637 37.4817 1.95369 36.3897C0.801013 35.2791 0.156295 33.9094 0 32.2435H0Z" fill="white"/>
<path d="M25.984 30.9479L30.712 32.2991C30.458 33.4281 29.9305 34.5017 29.2076 35.4457C28.5434 36.2786 27.6642 36.9264 26.6678 37.3522C25.6519 37.7779 24.3625 38 22.7995 38C20.9044 38 19.3415 37.7409 18.1497 37.2226C16.9384 36.7043 15.903 35.7789 15.0238 34.4647C14.1447 33.1505 13.7148 31.4661 13.7148 29.4116C13.7148 26.6722 14.4768 24.5621 16.0202 23.0998C17.5636 21.6376 19.7322 20.8972 22.5455 20.8972C24.7532 20.8972 26.4724 21.3229 27.7423 22.1559C28.9927 23.0073 29.9305 24.303 30.5557 26.0429L25.7887 27.0424C25.6714 26.6537 25.4956 26.265 25.2612 25.9318C24.9681 25.5431 24.5969 25.2469 24.1476 25.0248C23.6982 24.8027 23.1902 24.7102 22.6823 24.7102C21.4515 24.7102 20.5137 25.1729 19.869 26.1169C19.3805 26.8017 19.1266 27.8938 19.1266 29.3746C19.1266 31.207 19.4196 32.4657 20.0057 33.1505C20.5918 33.8354 21.4124 34.1685 22.4869 34.1685C23.5224 34.1685 24.3038 33.8909 24.8313 33.3541C25.3588 32.7803 25.7496 31.9844 25.984 30.9479ZM37.0224 21.1749H42.4146V26.9683H48.3147V21.1749H53.746V37.7223H48.3147V31.0219H42.4146V37.7223H37.0224V21.1749Z" fill="white"/>
<path d="M53.0034 29.4486C53.0034 26.7462 53.8044 24.6362 55.3869 23.1369C56.9694 21.6376 59.1966 20.8787 62.0295 20.8787C64.9405 20.8787 67.1677 21.6191 68.7502 23.0999C70.3327 24.5806 71.1141 26.6537 71.1141 29.3191C71.1141 31.2626 70.7625 32.8359 70.0787 34.076C69.4144 35.2976 68.379 36.2971 67.1091 36.9635C65.8001 37.6483 64.1785 38 62.2444 38C60.2711 38 58.6496 37.7039 57.3602 37.1116C56.0316 36.4822 54.9376 35.5012 54.2147 34.2981C53.4137 33.0024 53.0034 31.3921 53.0034 29.4486ZM58.3956 29.4671C58.3956 31.133 58.7277 32.3361 59.3724 33.0765C60.0172 33.7984 60.9159 34.1685 62.049 34.1685C63.2017 34.1685 64.1004 33.8169 64.7451 33.095C65.3898 32.3731 65.7024 31.096 65.7024 29.245C65.7024 27.6902 65.3703 26.5426 64.706 25.8393C64.0418 25.1174 63.1431 24.7657 62.0099 24.7657C61.0135 24.7287 60.0562 25.1359 59.392 25.8578C58.7277 26.5796 58.3956 27.7828 58.3956 29.4671ZM76.6431 29.4486C76.6431 26.7462 77.4441 24.6362 79.0266 23.1369C80.6091 21.6376 82.8363 20.8787 85.6691 20.8787C88.5801 20.8787 90.8269 21.6191 92.3898 23.0999C93.9528 24.5806 94.7538 26.6537 94.7538 29.3191C94.7538 31.2626 94.4021 32.8359 93.7183 34.076C93.0541 35.2976 92.0186 36.2971 90.7487 36.9635C89.4397 37.6483 87.8182 38 85.884 38C83.9108 38 82.2892 37.7039 80.9998 37.1116C79.6713 36.4822 78.5772 35.5012 77.8544 34.2981C77.0533 33.0024 76.6431 31.3921 76.6431 29.4486ZM82.0353 29.4671C82.0353 31.133 82.3674 32.3361 83.0121 33.0765C83.6568 33.7984 84.5555 34.1685 85.6887 34.1685C86.8413 34.1685 87.74 33.8169 88.3848 33.095C89.0295 32.3731 89.3421 31.096 89.3421 29.245C89.3421 27.6902 89.0099 26.5426 88.3457 25.8393C87.6814 25.1174 86.7827 24.7657 85.6496 24.7657C84.6532 24.7287 83.6764 25.1359 83.0316 25.8578C82.3674 26.5796 82.0353 27.7828 82.0353 29.4671Z" fill="white"/>
<path d="M94.1875 21.1749H99.5797V33.6503H108V37.7224H94.168V21.1749H94.1875Z" fill="white"/>
<path d="M88.2442 20.2199C93.673 16.344 95.3471 9.77377 91.9833 5.54484C88.6196 1.31591 81.4919 1.02972 76.0631 4.90561C70.6343 8.78149 68.9602 15.3517 72.324 19.5807C75.6877 23.8096 82.8155 24.0958 88.2442 20.2199Z" fill="white"/>
<path d="M58.6108 10.404L86.6644 -9.62493L106.077 14.7804L78.0231 34.8093L58.6108 10.404Z" fill="white"/>
<path d="M88.3761 20.1585C93.8048 16.2826 95.4789 9.71237 92.1152 5.48344C88.7514 1.25451 81.6237 0.968314 76.1949 4.8442C70.7661 8.72009 69.0921 15.2903 72.4558 19.5193C75.8195 23.7482 82.9473 24.0344 88.3761 20.1585Z" fill="white"/>
<path d="M66.4229 12.0336L86.0669 -1.99075L98.2595 13.3385L78.6155 27.3629L66.4229 12.0336Z" fill="white"/>
<path d="M88.3761 20.1585C93.8048 16.2826 95.4789 9.71237 92.1152 5.48344C88.7514 1.25451 81.6237 0.968314 76.1949 4.8442C70.7661 8.72009 69.0921 15.2903 72.4558 19.5193C75.8195 23.7482 82.9473 24.0344 88.3761 20.1585Z" fill="white" stroke="black" stroke-width="4" stroke-miterlimit="10"/>
<path d="M66.4229 12.0336L86.0669 -1.99075L98.2595 13.3385L78.6155 27.3629L66.4229 12.0336Z" stroke="black" stroke-width="4" stroke-miterlimit="10"/>
<path d="M88.3761 20.1585C93.8048 16.2826 95.4789 9.71237 92.1152 5.48344C88.7514 1.25451 81.6237 0.968314 76.1949 4.8442C70.7661 8.72009 69.0921 15.2903 72.4558 19.5193C75.8195 23.7482 82.9473 24.0344 88.3761 20.1585Z" stroke="black" stroke-width="4" stroke-miterlimit="10"/>
<path d="M66.4229 12.0336L86.0669 -1.99075L98.2595 13.3385L78.6155 27.3629L66.4229 12.0336Z" fill="white"/>
<path d="M88.3761 20.1585C93.8048 16.2826 95.4789 9.71237 92.1152 5.48344C88.7514 1.25451 81.6237 0.968314 76.1949 4.8442C70.7661 8.72009 69.0921 15.2903 72.4558 19.5193C75.8195 23.7482 82.9473 24.0344 88.3761 20.1585Z" fill="white" stroke="black" stroke-width="4" stroke-miterlimit="10"/>
<path d="M66.4229 12.0336L86.0669 -1.99075L98.2595 13.3385L78.6155 27.3629L66.4229 12.0336Z" stroke="black" stroke-width="4" stroke-miterlimit="10"/>
<path d="M58.6108 10.404L86.6644 -9.62492L106.077 14.7804L78.0231 34.8093L58.6108 10.404Z" stroke="black" stroke-width="4" stroke-miterlimit="10"/>
<path d="M88.3761 20.1585C93.8048 16.2826 95.4789 9.71237 92.1152 5.48344C88.7514 1.25451 81.6237 0.968314 76.1949 4.8442C70.7661 8.72009 69.0921 15.2903 72.4558 19.5193C75.8195 23.7482 82.9473 24.0344 88.3761 20.1585Z" stroke="black" stroke-width="4" stroke-miterlimit="10"/>
<path d="M76.795 11.2849L78.7487 9.98925L81.1517 13.2284C81.562 13.7467 81.8746 14.302 82.109 14.9128C82.2458 15.3755 82.2067 15.8753 82.0113 16.3195C81.7574 16.8748 81.3471 17.3375 80.8 17.6707C80.1553 18.0964 79.6083 18.337 79.1394 18.4111C78.6901 18.4851 78.2212 18.4111 77.7914 18.226C77.3225 18.0039 76.9122 17.6892 76.5996 17.282L78.2798 15.8012C78.4165 16.0048 78.5924 16.1899 78.7877 16.338C78.9245 16.4306 79.0808 16.4861 79.2566 16.4861C79.3934 16.4861 79.5301 16.4306 79.6278 16.3565C79.8232 16.2455 79.96 16.0233 79.9404 15.8012C79.8818 15.4866 79.7451 15.1719 79.5301 14.9313L76.795 11.2849ZM82.6561 13.3395L84.4339 12.0068C84.6293 12.2289 84.8833 12.3955 85.1568 12.488C85.5475 12.5991 85.9578 12.525 86.2899 12.2844C86.5244 12.1363 86.7197 11.9327 86.7979 11.6736C86.9151 11.3404 86.7197 10.9703 86.3681 10.8592C86.3095 10.8407 86.2508 10.8222 86.1922 10.8222C85.9578 10.8037 85.5475 10.8962 84.9419 11.1368C83.9455 11.5255 83.164 11.6736 82.5779 11.6181C82.0113 11.5626 81.4838 11.2849 81.1712 10.8222C80.9368 10.5075 80.8196 10.1373 80.8 9.76713C80.8 9.34141 80.9173 8.9157 81.1712 8.56401C81.5424 8.06426 81.9918 7.63854 82.5388 7.30537C83.3594 6.76859 84.0822 6.50946 84.7074 6.50946C85.3326 6.50946 85.9187 6.7871 86.4657 7.3609L84.7074 8.67507C84.3558 8.24935 83.6915 8.15681 83.2422 8.48998L83.1836 8.54551C82.9882 8.65656 82.8514 8.82315 82.7733 9.02675C82.7147 9.17483 82.7537 9.34141 82.8514 9.47098C82.9296 9.56353 83.0468 9.63757 83.1836 9.63757C83.3398 9.65608 83.6134 9.58204 84.0041 9.41545C84.9809 9.02675 85.7233 8.80464 86.2313 8.7306C86.6611 8.65656 87.1105 8.69358 87.5207 8.86017C87.8919 9.00824 88.2045 9.26738 88.4194 9.58204C88.693 9.95223 88.8493 10.3965 88.8688 10.8592C88.8883 11.3404 88.7516 11.8032 88.4781 12.2104C88.1264 12.7101 87.677 13.1359 87.1495 13.469C86.075 14.1724 85.1958 14.4685 84.4925 14.3575C83.7306 14.2464 83.1054 13.8762 82.6561 13.3395Z" fill="black"/>
</g>
<defs>
<clipPath id="clip0_14_96">
<rect width="108" height="38" fill="white"/>
</clipPath>
</defs>
</svg>
